<?xml version="1.0" encoding="UTF-8"?>
<!DOCTYPE svg PUBLIC "-//W3C//DTD SVG 1.1//EN" "http://www.w3.org/Graphics/SVG/1.1/DTD/svg11.dtd">
<svg xmlns="http://www.w3.org/2000/svg" xmlns:xlink="http://www.w3.org/1999/xlink" version="1.1" width="238px" height="93px" viewBox="-0.5 -0.5 238 93"><defs/><g><rect x="44.63" y="39" width="146.94" height="14" rx="6.72" ry="6.72" fill="#4d5b69" stroke="none" pointer-events="none"/><rect x="141.65" y="39" width="91.84" height="14" rx="6.72" ry="6.72" fill="#4d5b69" stroke="none" transform="rotate(90,187.57,46)" pointer-events="none"/><rect x="3.9" y="39" width="91.84" height="14" rx="6.72" ry="6.72" fill="#4d5b69" stroke="none" transform="rotate(90,49.82,46)" pointer-events="none"/><rect x="168.67" y="41.52" width="67.96" height="11.2" rx="5.38" ry="5.38" fill="#4d5b69" stroke="none" transform="rotate(90,202.65,47.12)" pointer-events="none"/><rect x="193.43" y="45.16" width="38.57" height="4.2" rx="2.1" ry="2.1" fill="#4d5b69" stroke="none" transform="rotate(90,212.71,47.26)" pointer-events="none"/><rect x="0.37" y="40.96" width="67.96" height="11.2" rx="5.38" ry="5.38" fill="#4d5b69" stroke="none" transform="rotate(90,34.35,46.56)" pointer-events="none"/><rect x="5" y="45.16" width="38.57" height="4.2" rx="2.1" ry="2.1" fill="#4d5b69" stroke="none" transform="rotate(90,24.29,47.26)" pointer-events="none"/></g></svg>